# xmcd
#
# Track frame offsets: 
#        150
#        17272
#        37462
#        54675
#        75702
#        92727
#        111340
#        127537
#        146175
#        167412
#
# Disc length: 2455 seconds
#
# Revision: 1
# Processed by: cddbd v1.5.2PL0 Copyright (c) Steve Scherf et al.
# Submitted via: ExactAudioCopyFreeDBPlugin 1.0
#
DISCID=7e09950a
DTITLE=Varios - Reflexiones De Amor
DYEAR=1994
DGENRE=Latin
TTITLE0=Gloria Estefan - No Pretendo
TTITLE1=Ricky Martin - Me Amaras
TTITLE2=Ana Gabriel - Simplemente Amigos
TTITLE3=Mocedades - Cuando Tu Nazcas
TTITLE4=José Luis Perales - Amor Sin Limite
TTITLE5=Celine Dion - Sola Otra Vez
TTITLE6=La Mafia - Enamorada
TTITLE7=Chayanne - Tiempo De Vals
TTITLE8=Franco De Vita - Somos Tres
TTITLE9=José Luis Rodriguez - Que Se Siente
EXTD=
EXTT0=
EXTT1=
EXTT2=
EXTT3=
EXTT4=
EXTT5=
EXTT6=
EXTT7=
EXTT8=
EXTT9=
PLAYORDER=
